#!OML:ASF F:\VICON\USERDATA\INSTALL\rory3\rory3.ASF
:FULLY-SPECIFIED
:DEGREES
51
root 0.12934148894981856 18.13350859416627 7.8731683844185465 -3.31710450275269 0.10604272104969015 -4.414253880309321
lfemur -12.670232576323434 -0.4002873261654316 -14.375947836328752
ltibia 59.99092646504651
lfoot -4.595655548944563 -4.727755489317694
ltoes -3.985309628864539
rfemur -14.242783539664295 6.216593277427376 28.94746029377419
rtibia 35.24039786002347
rfoot -8.154591984795854 -4.572388138380933
rtoes 4.663407124915707
lowerback 9.622379776779335 -0.03170209123501011 2.5512589396741143
upperback 0.44566145000187185 0.5044874333112235 2.4450884465595033
thorax -5.016092068277461 0.2680039313488413 0.921594177372867
lowerneck -15.888129430784392 -2.5664532283117696 -2.0723792708400777
upperneck 21.785951467584827 -3.1241118908379217 0.6581205948927205
head 9.533303498861883 -1.7351801252681955 -0.0162462659429691
lclavicle -1.386020746417081e-15 -1.842390908077709e-15
lhumerus -32.55866169070755 1.7161374847816273 83.52414642815722
lradius 23.432894196608206
lwrist 2.7566540245434994
lhand -27.189776452375387 24.235945709573848
lfingers 7.125019999999999
lthumb -0.669540558473636 54.28878357969496
rclavicle -1.3880244278713999e-15 -1.8442527672368603e-15
rhumerus -30.670670732734003 -27.475558639670666 -74.41243130662147
rradius 21.740962000405755
rwrist 11.121908390784515
rhand -18.445729579812486 22.65877799578612
rfingers 7.125019999999999
rthumb 7.738022962878211 -7.297939530788298
52
root 0.11147132533935994 18.13025106888011 8.521824461360708 -3.441383327637031 -0.39191238737085343 -4.739164311842771
lfemur -17.39734494300755 1.1443556022799766 -14.06613323451013
ltibia 60.26214973965807
lfoot -4.986601433186346 -3.663890546274624
ltoes -4.514097872785272
rfemur -11.870499414813471 6.329257657612801 29.542683083976094
rtibia 34.37892563141585
rfoot -8.398715186686966 -4.254763264147913
rtoes 4.8427919069049
lowerback 9.693078935007584 0.2799505149985136 3.0140655711622943
upperback 0.4194132361989258 0.9694142225142355 2.326627328061692
thorax -5.083931190671744 0.440042566800251 0.415482371707808
lowerneck -15.83695806677889 -2.5865160323255716 -2.0261015460245493
upperneck 21.737437311288897 -3.193726697882575 0.675386956164924
head 9.533593083221074 -1.7567992909550658 -0.010856010087635981
lclavicle -1.386020746551051e-15 -1.8423909082021964e-15
lhumerus -33.70288487059166 1.9846603096794642 83.34570658674248
lradius 22.476844041414875
lwrist 2.1174788471897896
lhand -27.078101721304005 24.38406916969018
lfingers 7.125019999999999
lthumb -0.6556185793756004 54.29994467137204
rclavicle -1.3880244278209571e-15 -1.8442527671899878e-15
rhumerus -28.91578309383362 -24.692964695016915 -76.29340744163356
rradius 21.865545672377422
rwrist 9.921841314255248
rhand -18.482515699161063 22.571995672354852
rfingers 7.125019999999999
rthumb 7.699481979987724 -7.411104191109799
53
root 0.102173171845447 18.105500343237896 8.949716387230424 -3.4306213964049888 -0.9448436501152537 -5.147196399303047
lfemur -21.407405711834507 2.4333921080710406 -13.7007643763481
ltibia 58.585906236807816
lfoot -5.689333192391318 -2.9994002506852455
ltoes -5.054563317329617
rfemur -9.84714824079646 6.33920513485535 30.030459742082176
rtibia 33.92826734678895
rfoot -8.576047200411178 -4.029602959193305
rtoes 4.91935760866037
lowerback 9.820698766772967 0.6148210962385423 3.6038453973124933
upperback 0.3360917535321083 1.4156674225377612 2.208517973862315
thorax -5.162548949512011 0.6133417275879303 -0.0649404887112639
lowerneck -15.848208305841066 -2.6078695477139875 -1.9956827092191347
upperneck 21.679908389171263 -3.240687315227008 0.6587285772062715
head 9.500603112131 -1.7700269762519116 -0.016582998222415185
lclavicle -1.3860207464733502e-15 -1.8423909081299955e-15
lhumerus -34.714821079575884 2.659852763461312 83.05366998976322
lradius 21.2398327198911
lwrist 1.1126140815049275
lhand -27.060325885588554 24.300526517981634
lfingers 7.125019999999999
lthumb -0.7653979607687013 54.053717499723476
rclavicle -1.3880244279499606e-15 -1.8442527673098603e-15
rhumerus -27.57635413305627 -21.928422517656998 -78.09300474754185
rradius 22.054474424420178
rwrist 8.389470042325843
rhand -18.49063418116539 22.56152984570627
rfingers 7.125019999999999
rthumb 7.710274622833791 -7.427228834916421
54
root 0.10404250072268101 18.06812011486596 9.474025859352842 -3.2397107482791743 -1.4759857759441948 -5.635599046038133
lfemur -25.033589401415284 3.1818049604806085 -13.35570603895199
ltibia 55.056770332067195
lfoot -6.061555633445989 -2.551895810872812
ltoes -5.254238179402078
rfemur -8.290885918786262 6.216227936947576 30.558266507589913
rtibia 33.90821284180159
rfoot -8.668589030644215 -3.919649275136612
rtoes 4.791771016921316
lowerback 9.915377608779776 0.9289529721042025 4.204859175255049
upperback 0.24902153911564934 1.9014052862447635 2.143037330928042
thorax -5.192152071515975 0.82605191430866 -0.41716391332237746
lowerneck -15.909680952766372 -2.6273431704503905 -1.9687329272174054
upperneck 21.686905121795007 -3.204095958585415 0.6904457287963346
head 9.48800196728253 -1.7642820666003498 -0.013638284880399448
lclavicle -1.3860207466490933e-15 -1.8423909082932992e-15
lhumerus -35.65202699930126 3.692521981681668 82.58611999839398
lradius 19.877593566630228
lwrist 0.1373435162052572
lhand -27.01708964658684 24.333314834688505
lfingers 7.125019999999999
lthumb -0.6449943203283206 54.210100629675516
rclavicle -1.3880244277966908e-15 -1.844252767167439e-15
rhumerus -26.298101370326965 -19.181566910484392 -79.49777274160186
rradius 22.358707909178623
rwrist 6.5983663025223755
rhand -18.47768329503328 22.54228265221033
rfingers 7.125019999999999
rthumb 7.758937967150713 -7.420436075635559
